<?xml version="1.0" encoding="UTF-8" standalone="no"?>
<!-- Created with Inkscape (http://www.inkscape.org/) -->

<svg
   xmlns:dc="http://purl.org/dc/elements/1.1/"
   xmlns:cc="http://creativecommons.org/ns#"
   xmlns:rdf="http://www.w3.org/1999/02/22-rdf-syntax-ns#"
   xmlns:svg="http://www.w3.org/2000/svg"
   xmlns="http://www.w3.org/2000/svg"
   xmlns:sodipodi="http://sodipodi.sourceforge.net/DTD/sodipodi-0.dtd"
   xmlns:inkscape="http://www.inkscape.org/namespaces/inkscape"
   width="2332.2947"
   height="443.41806"
   id="svg3923"
   version="1.1"
   inkscape:version="0.48.4 r9939"
   sodipodi:docname="Blue_whale_size.svg">
  <defs
     id="defs3925" />
  <sodipodi:namedview
     id="base"
     pagecolor="#ffffff"
     bordercolor="#666666"
     borderopacity="1.0"
     inkscape:pageopacity="0.0"
     inkscape:pageshadow="2"
     inkscape:zoom="0.5"
     inkscape:cx="1058.6549"
     inkscape:cy="172.3772"
     inkscape:document-units="px"
     inkscape:current-layer="g4037"
     showgrid="false"
     inkscape:window-width="1920"
     inkscape:window-height="1017"
     inkscape:window-x="-8"
     inkscape:window-y="-8"
     inkscape:window-maximized="1"
     fit-margin-top="0"
     fit-margin-left="0"
     fit-margin-right="0"
     fit-margin-bottom="0"
     showguides="true"
     inkscape:guide-bbox="true">
    <sodipodi:guide
       orientation="1,0"
       position="-2.8701149e-006,489.85682"
       id="guide2999" />
    <sodipodi:guide
       orientation="1,0"
       position="2200,2416.8568"
       id="guide3001" />
    <sodipodi:guide
       orientation="1,0"
       position="175.00893,3964.2938"
       id="guide3003" />
  </sodipodi:namedview>
  <metadata
     id="metadata3928">
    <rdf:RDF>
      <cc:Work
         rdf:about="">
        <dc:format>image/svg+xml</dc:format>
        <dc:type
           rdf:resource="http://purl.org/dc/dcmitype/StillImage" />
        <dc:title />
      </cc:Work>
    </rdf:RDF>
  </metadata>
  <g
     inkscape:groupmode="layer"
     id="layer7"
     inkscape:label="back fin"
     transform="translate(798.77305,-104.38806)">
    <path
       style="fill:#6b7c98;fill-opacity:1;stroke:#000000;stroke-width:4.16262245px;stroke-linecap:butt;stroke-linejoin:miter;stroke-opacity:1"
       d="m -103.74873,492.88345 c 71.516722,52.28803 121.491335,47.46176 131.312751,46.38447 L 51.978134,524.25105 -46.179624,466.43389 -100.58264,489.053 z"
       id="path3991"
       inkscape:connector-curvature="0"
       sodipodi:nodetypes="cccccc" />
  </g>
  <g
     inkscape:groupmode="layer"
     id="layer4"
     inkscape:label="trace"
     transform="translate(798.77305,-104.38806)">
    <path
       style="fill:#6b7c98;fill-opacity:1;stroke:#000000;stroke-width:4.16262245px;stroke-linecap:butt;stroke-linejoin:miter;stroke-opacity:1"
       d="m 1531.4402,478.26011 c 0,0 -31.0746,-17.14218 -44.1513,-28.90858 -29.4339,-26.48448 -51.6299,-58.96746 -75.1623,-91.9818 -2.4597,-3.45073 -8.3199,-3.0562 -11.0378,-6.30733 -3.6964,-4.4215 -2.7964,-11.36433 -5.7818,-16.29392 -5.0029,-8.26114 -11.5145,-24.6712 -11.0378,-24.70371 l -59.2136,5.47381 c 0,0 -40.3533,-41.73453 -64.8304,-58.56048 -24.1634,-16.61028 -49.958,-31.36661 -77.2648,-42.04881 -49.3079,-19.28885 -101.9841,-29.03171 -154.0038,-38.89517 -35.22919,-6.6798 -71.24361,-8.31505 -106.69896,-13.66589 -8.08872,-1.22073 -18.28819,1.47199 -24.17809,-4.20487 -4.25549,-4.1016 -4.25716,-11.46312 -3.67926,-17.34515 0.39129,-3.98376 4.73049,-11.03782 4.73049,-11.03782 0,0 -37.88449,11.80661 -57.29155,15.76831 -28.23481,5.76373 -56.97552,8.95683 -85.67451,11.56343 -70.56998,6.40952 -141.5707,6.52678 -212.34661,9.98659 -116.13683,5.67723 -232.29768,10.94807 -348.37836,17.67632 -100.765264,5.84054 -201.4708807,12.69184 -302.1618,19.69811 -93.81232,6.52766 -187.3208,19.35499 -281.34865,20.81312 -8.67903,0.13445 -17.46337,0.36464 -26.01639,-1.11496 -7.02751,-1.21574 -13.37984,-5.31987 -20.44148,-6.31828 -13.00507,-1.83875 -26.29108,-0.1332 -39.39622,0.74332 -30.23629,2.02258 -60.07276,8.4602 -90.31405,10.40656 -26.83064,1.72686 -53.76676,0.77811 -80.65081,1.115 -22.05166,0.27639 -44.1081,1.23704 -66.15597,0.74332 -13.27348,-0.29722 -26.49118,-2.18979 -39.76791,-2.23 -9.92336,-0.0291 -20.22335,-1.34878 -29.73303,1.48668 -5.64022,1.68174 -12.67993,3.61931 -15.23815,8.91987 -2.28461,4.73361 0.22978,10.74922 2.22996,15.60984 2.05563,4.9951 5.81818,9.21446 9.66324,13.00819 7.83234,7.72787 17.16399,13.94241 26.75971,19.32647 45.81011,25.70357 97.21783,39.848 145.32014,60.9527 53.91229,23.65381 106.55976,50.13296 160.5583,73.58921 15.84719,6.88381 31.52974,14.30573 47.94446,19.69811 29.60249,9.72472 60.0604,16.92981 90.68573,22.67144 45.6571,8.55976 92.22985,11.20715 138.2585,17.46815 24.68668,3.35799 49.10346,9.09945 73.9609,10.77824 62.794861,4.24092 125.939886,1.17598 188.804642,-1.85832 44.342668,-2.1403 88.484948,-7.35831 132.683588,-11.52156 31.73792,-2.98951 63.46634,-6.10673 95.14569,-9.66324 46.39163,-5.20819 92.72066,-10.98391 139.00182,-17.09647 63.25983,-8.35505 126.34055,-18.01708 189.54801,-26.75971 62.16768,-8.59881 124.58084,-15.49956 186.57469,-25.27307 37.30284,-5.88091 74.10242,-14.8164 111.4988,-20.06979 26.75867,-3.75902 53.63226,-7.78307 80.65083,-8.1766 29.3101,-0.42692 58.544,3.40815 87.7124,6.31828 17.5229,1.74826 34.8683,5.08002 52.4044,6.68992 21.9943,2.01916 44.0745,4.1975 66.156,3.71663 13.6923,-0.29804 27.4398,-1.47065 40.8829,-4.08827 12.5446,-2.44267 36.7946,-10.77824 36.7946,-10.77824 0,0 15.9499,8.83537 23.0431,14.49488 13.1474,10.49005 22.7911,24.87291 35.6796,35.67958 13.089,10.9748 27.1669,20.88725 41.9979,29.36139 12.1783,6.95849 24.9898,12.9883 38.2812,17.46811 14.924,5.03003 30.3828,9.21072 46.0862,10.40656 12.9602,0.98696 38.8976,-2.7301 38.8976,-2.7301 z"
       id="path3981"
       inkscape:connector-curvature="0"
       sodipodi:nodetypes="cssssccsssssscsssssssssssssssssssssssssssssssssssscsssssc" />
  </g>
  <g
     inkscape:groupmode="layer"
     id="layer5"
     inkscape:label="eye"
     style="display:inline"
     transform="translate(798.77305,-104.38806)">
    <path
       sodipodi:type="arc"
       style="fill:#000000;fill-opacity:1;stroke:none"
       id="path3986"
       sodipodi:cx="-354.56354"
       sodipodi:cy="146.44475"
       sodipodi:rx="2.6516504"
       sodipodi:ry="1.3258252"
       d="m -351.91189,146.44475 c 0,0.73223 -1.18718,1.32582 -2.65165,1.32582 -1.46446,0 -2.65165,-0.59359 -2.65165,-1.32582 0,-0.73224 1.18719,-1.32583 2.65165,-1.32583 1.46447,0 2.65165,0.59359 2.65165,1.32583 z"
       transform="matrix(-4.1626224,0,0,4.1626224,-1791.4692,-280.34465)" />
  </g>
  <g
     inkscape:groupmode="layer"
     id="layer9"
     inkscape:label="diver"
     transform="translate(798.77305,-104.38806)">
    <g
       style="display:inline"
       id="g4037"
       transform="matrix(-0.1251327,0.04726632,0.04726632,0.1251327,-584.71454,62.4219)">
      <path
         sodipodi:nodetypes="csssssscsssssssccsssssssscc"
         inkscape:connector-curvature="0"
         id="path2997"
         d="m -12069.003,5302.8171 c 0,0 -23.536,-0.8615 -35.31,-0.9054 -8.301,-0.03 -16.61,0.9063 -24.898,0.4528 -5.924,-0.324 -12.329,0.3519 -17.655,-2.2635 -4.406,-2.1634 -6.597,-7.3234 -10.412,-10.4119 -15.94,-12.9049 -31.659,-23.3746 -50.006,-32.5389 -17.681,-8.8314 -42.569,-13.5642 -61.123,-20.3711 -29.133,-10.6878 -83.528,-33.1014 -83.528,-33.1014 0,0 6.665,-11.3168 5.432,-17.2023 -1.315,-6.28 -2.914,-10.4113 -8.834,-12.8856 -11.577,-4.8387 -28.873,0.3092 -41.415,0.6629 -39.972,1.1274 -80.053,2.0363 -119.963,-0.4527 -26.246,-1.6369 -48.246,-4.6849 -74.154,-9.1865 -17.367,-3.0174 -39.429,-4.8984 -57.029,-8.6256 -14.382,-3.0457 -28.458,-8.3887 -42.761,-10.09 -11.089,-1.3191 -31.578,-3.3337 -31.578,-3.3337 -10.714,5.2676 -13.933,13.2607 -5.885,25.3507 0,0 22.534,8.1797 34.215,9.4316 31.315,3.3562 52.161,7.6771 78.425,11.2035 33.321,4.474 56.327,8.5214 89.308,15.0448 18.584,3.6756 43.505,6.6853 61.14,13.6043 15.823,6.2081 35.575,16.0286 51.056,23.0473 19.063,8.6429 38.13,13.804 57.138,22.5671 26.202,12.0799 50.652,27.663 75.544,42.2534 19.008,11.1419 38.037,22.3007 56.338,34.571 9.701,6.505 28.296,20.671 28.296,20.671 l 27.161,25.3508"
         style="fill:#000000;stroke:#ffffff;stroke-width:3.04208851;stroke-linecap:butt;stroke-linejoin:miter;stroke-miterlimit:4;stroke-opacity:1;stroke-dasharray:none" />
      <path
         sodipodi:nodetypes="cssssssssssssssssssscscssssccccsccsssssssssccccccccsssccccssssssssssscssssssssssscc"
         inkscape:connector-curvature="0"
         id="path3000"
         d="m -12748.04,5756.8668 c 0,0 62.1,0.5607 92.348,-5.4322 26.308,-5.2122 52.166,-14.0622 76.052,-26.2562 25.28,-12.9052 47.691,-30.9867 69.715,-48.8906 26.011,-21.1449 48.113,-46.7307 73.336,-68.8092 25.501,-22.3214 51.026,-44.8174 78.769,-64.2822 33.683,-23.6332 52.138,-35.6451 87.822,-56.1338 26.59,-15.2675 70.263,-38.5812 99.139,-48.8907 18.787,-6.7073 39.514,-7.1506 58.398,-13.5808 12.521,-4.2638 23.297,-12.5701 35.309,-18.1076 26.67,-12.2944 54.262,-22.4824 81.485,-33.4992 35.533,-14.3801 71.028,-28.8689 106.835,-42.553 21.316,-8.146 42.174,-17.8896 64.282,-23.54 27.5,-7.0283 56.254,-7.7172 84.201,-12.6754 13.346,-2.3677 26.846,-4.2826 39.837,-8.1484 28.307,-8.4238 56.225,-18.8938 82.39,-32.5938 27.955,-14.6379 55.135,-31.6014 78.768,-52.5123 16.989,-15.0323 32.907,-32.0275 44.364,-51.6068 10.704,-18.293 10.574,-41.734 21.729,-59.7553 4.382,-7.079 11.149,-12.3924 17.203,-18.1077 3.737,-3.5281 11.769,-9.9592 11.769,-9.9592 0,0 13.889,3.5668 22.635,4.5269 7.589,0.8331 21.729,1.8108 21.729,1.8108 0,0 9.124,19.7425 18.108,24.4453 8.56,4.481 19.942,4.3414 28.972,0.9054 7.383,-2.8088 14.216,-8.9844 17.202,-16.2969 3.083,-7.5488 2.763,-17.1628 -0.905,-24.4454 -2.608,-5.1777 -13.581,-10.8645 -13.581,-10.8645 l -15.391,-4.527 8.148,-15.3915 7.017,0 c 0,0 2.747,0.8318 3.622,0 1.797,-1.7093 0.374,-7.4321 0.374,-7.4321 l -9.202,-17.9186 c 0,0 -0.644,-11.4662 -0.905,-17.2023 -0.358,-7.8443 1.876,-16.1967 -0.906,-23.54 -1.519,-4.0112 -5.817,-6.359 -8.148,-9.9592 -5.503,-8.4965 -7.563,-19.0225 -13.581,-27.1615 -5.204,-7.0371 -11.993,-12.8805 -19.013,-18.1077 -7.806,-5.8129 -16.364,-10.7485 -25.351,-14.4861 -8.383,-3.4866 -17.178,-7.0964 -26.256,-7.2431 -9.002,-0.1455 -17.775,3.3167 -26.256,6.3377 -7.884,2.8082 -16.032,5.7216 -22.635,10.8646 -7.438,5.7941 -18.107,21.7292 -18.107,21.7292 l -12.676,-18.1077 -23.54,-9.0538 -15.391,2.7162 -11.77,-16.2969 -13.581,0 -8.148,6.3377 -7.243,10.8645 c 0,0 -11.408,-8.7053 -18.108,-10.8645 -10.377,-3.3444 -21.752,-3.8613 -32.594,-2.7162 -13.482,1.4239 -25.954,7.8459 -38.931,11.77 -110.761,33.4928 -332.276,100.4975 -332.276,100.4975 2.032,41.0496 9.738,82.7334 38.931,125.8483 l 170.212,-53.4176 0.906,66.9984 c 0,0 -29.643,1.0433 -44.364,2.7161 -10.944,1.2436 -22.218,1.7369 -32.594,5.4323 -11.46,4.0818 -22.339,10.3231 -31.688,18.1077 -13.66,11.374 -26.804,30.4477 -39.384,43.0057 -22.89,22.8498 -46.233,39.2736 -71.978,58.8499 -15.726,11.9576 -33.381,20.9548 -49.344,32.5939 -12.34,8.998 -20.546,21.5558 -33.046,30.3303 -25.954,18.218 -54.705,31.6974 -88.728,43.4584 -17.796,6.152 -31.79,11.2174 -47.985,20.8238 -21.934,13.0107 -44.37,31.5016 -63.83,47.9854 -13.388,11.3406 -27.578,23.9201 -41.647,34.4045 -10.338,7.704 -40.29,30.783 -40.29,30.783 0,0 -13.1,-12.6454 -24.445,-10.8646 -6.7,1.0517 -13.8,2.9053 -19.013,7.2431 -12.493,10.3951 -14.812,26.5485 -20.824,41.6477 -3.197,8.0289 -6.561,17.4048 -9.959,25.3507 -7.176,16.778 -20.333,30.3095 -30.783,45.2692 -9.784,14.0065 -19.144,28.3548 -29.878,41.6476 -8.188,10.1402 -16.801,20.0017 -26.256,28.9723 -7.625,7.2345 -15.094,15.1197 -24.445,19.9184 -13.353,6.8517 -28.802,8.5418 -43.459,11.77 -12.259,2.7 -24.773,4.0793 -37.12,6.3377 -12.402,2.2681 -25.08,3.5077 -37.121,7.243 -9.425,2.9236 -27.162,11.77 -27.162,11.77 z"
         style="fill:#000000;stroke:#ffffff;stroke-width:3.04208851;stroke-linecap:butt;stroke-linejoin:miter;stroke-miterlimit:4;stroke-opacity:1;stroke-dasharray:none;display:inline" />
      <path
         sodipodi:nodetypes="cc"
         inkscape:connector-curvature="0"
         id="path3776"
         d="m -12030.977,4992.4969 c 26.564,42.0248 39.144,84.0498 39.158,126.0746"
         style="fill:none;stroke:#ffffff;stroke-width:3.04208851;stroke-linecap:butt;stroke-linejoin:miter;stroke-miterlimit:4;stroke-opacity:1;stroke-dasharray:none" />
    </g>
  </g>
  <g
     inkscape:groupmode="layer"
     id="layer8"
     inkscape:label="belly shading"
     transform="translate(798.77305,-104.38806)">
    <path
       style="fill:#afbfd7;fill-opacity:1;stroke:none"
       d="m -792.17855,237.37286 c 78.71037,2.10116 164.49789,24.05159 255.70948,34.58519 29.39074,3.3942 59.33527,7.47257 86.83085,18.39633 16.4198,6.52346 31.66898,16.29933 45.25507,27.59457 8.61505,7.16237 12.95779,19.05765 22.44357,25.01906 6.70386,4.21308 15.70441,3.13263 22.81151,6.6227 15.12697,7.4284 25.79781,22.20326 40.8399,29.80208 60.48353,30.55461 131.88582,33.75616 193.8977,61.07595 32.032337,14.11209 88.670476,51.48682 88.670476,51.48682 0,0 -51.964847,1.18326 -77.632656,-2.18455 -34.66141,-4.54783 -68.88716,-12.25846 -103.38755,-13.98125 -10.01652,-0.50018 -20.66568,-2.04256 -30.76803,-3.31261 -17.26552,-2.1706 -33.99401,-4.60582 -50.91187,-7.35731 -25.59267,-4.16233 -50.28502,-9.15294 -75.24115,-16.18873 -22.70136,-6.40012 -44.93255,-15.20806 -66.77878,-24.0993 -22.59393,-9.19552 -44.36261,-19.32439 -66.43841,-29.72091 -5.98619,-2.81918 -40.67973,-19.59867 -46.69926,-22.34076 -32.36555,-14.74359 -37.66961,-17.31234 -70.45804,-31.08987 -27.27546,-11.46099 -53.784,-19.54189 -80.94403,-31.27383 -20.59648,-8.89677 -42.02267,-16.64749 -60.70801,-29.06626 -9.83949,-6.53956 -18.76694,-12.71997 -25.20302,-22.62751 -3.08487,-4.74881 -5.92029,-10.21054 -5.15099,-15.82088 0.28014,-2.04331 0.39503,-4.02222 2.10608,-5.17339 0.49531,-0.33301 1.16049,-0.3276 1.75716,-0.3455 z"
       id="path3994"
       inkscape:connector-curvature="0"
       sodipodi:nodetypes="cssssssscsssssssssssssssc" />
  </g>
  <g
     inkscape:groupmode="layer"
     id="layer6"
     inkscape:label="fin"
     transform="translate(798.77305,-104.38806)">
    <path
       style="fill:none;stroke:#000000;stroke-width:4.16262245px;stroke-linecap:butt;stroke-linejoin:miter;stroke-opacity:1"
       d="m -359.70626,349.48556 c 0,0 -12.54856,-2.05784 -17.87076,-5.2561 -9.87616,-5.93486 -16.13083,-16.45731 -24.17806,-24.70371 -6.31686,-6.47321 -12.7196,-12.20548 -20.49883,-16.81949 -6.27644,-3.72272 -22.69012,-12.08514 -29.76079,-13.78282 -22.79361,-5.47273 -36.54129,-8.99693 -57.49052,-13.54896 -31.89123,-6.92956 -87.77697,-13.66585 -90.93062,-13.66585 -3.15368,0 -54.60561,-8.8049 -81.99525,-12.61466 -36.54791,-5.0836 -109.85256,-13.66589 -109.85256,-13.66589"
       id="path3984"
       inkscape:connector-curvature="0"
       sodipodi:nodetypes="csssssssc" />
    <path
       style="fill:#6b7c98;fill-opacity:1;stroke:#000000;stroke-width:4.16262245px;stroke-linecap:butt;stroke-linejoin:miter;stroke-opacity:1"
       d="m -156.15319,416.32091 c 19.88597,34.20436 53.26008,64.19488 90.160774,84.92995 88.456142,49.70487 181.789126,54.95689 216.089306,29.54217 0,0 -32.03117,-9.24843 -46.08618,-17.83979 C 90.983821,504.99035 81.696012,492.06932 69.81776,482.47689 54.780745,470.33352 39.156966,458.87382 22.988258,448.2839 7.3820042,438.06242 -8.2742847,427.6012 -25.327883,420.03755 -38.866687,414.0328 -67.697468,406.65768 -67.697468,406.65768"
       id="path3988"
       inkscape:connector-curvature="0"
       sodipodi:nodetypes="cscssssc" />
  </g>
</svg>
